<mxfile host="app.diagrams.net" modified="2022-12-12T02:25:24.681Z" agent="5.0 (Windows NT 10.0; Win64; x64) AppleWebKit/537.36 (KHTML, like Gecko) Chrome/107.0.0.0 Safari/537.36" etag="6GVaogpQbyE2fgfh_8Es" version="20.6.0" type="github">
  <diagram id="5Hd1_knUKNoZIQIIg_xV" name="第 1 页">
    <mxGraphModel dx="2180" dy="802" grid="1" gridSize="10" guides="1" tooltips="1" connect="1" arrows="1" fold="1" page="1" pageScale="1" pageWidth="827" pageHeight="1169" math="0" shadow="0">
      <root>
        <mxCell id="0" />
        <mxCell id="1" parent="0" />
        <mxCell id="zgLUoaWA3_SetJtCv8LB-1" value="server" style="whiteSpace=wrap;html=1;" parent="1" vertex="1">
          <mxGeometry x="460" y="240" width="120" height="60" as="geometry" />
        </mxCell>
        <mxCell id="zgLUoaWA3_SetJtCv8LB-2" value="client" style="whiteSpace=wrap;html=1;" parent="1" vertex="1">
          <mxGeometry x="90" y="240" width="120" height="60" as="geometry" />
        </mxCell>
        <mxCell id="zgLUoaWA3_SetJtCv8LB-3" value="&lt;font style=&quot;font-size: 16px;&quot;&gt;status line:http version + status code + reason phrase&lt;/font&gt;" style="text;html=1;align=center;verticalAlign=middle;resizable=0;points=[];autosize=1;strokeColor=none;fillColor=none;" parent="1" vertex="1">
          <mxGeometry x="340" y="325" width="400" height="30" as="geometry" />
        </mxCell>
        <mxCell id="zgLUoaWA3_SetJtCv8LB-4" value="&lt;span style=&quot;font-size: 16px;&quot;&gt;body&lt;/span&gt;" style="text;html=1;align=center;verticalAlign=middle;resizable=0;points=[];autosize=1;strokeColor=none;fillColor=none;" parent="1" vertex="1">
          <mxGeometry x="490" y="420" width="60" height="30" as="geometry" />
        </mxCell>
        <mxCell id="zgLUoaWA3_SetJtCv8LB-6" value="&lt;span style=&quot;font-size: 16px;&quot;&gt;empty line&lt;/span&gt;" style="text;html=1;align=center;verticalAlign=middle;resizable=0;points=[];autosize=1;strokeColor=none;fillColor=none;" parent="1" vertex="1">
          <mxGeometry x="470" y="390" width="100" height="30" as="geometry" />
        </mxCell>
        <mxCell id="zgLUoaWA3_SetJtCv8LB-7" value="&lt;font style=&quot;font-size: 16px;&quot;&gt;request line:method + url of server + http version&lt;/font&gt;" style="text;html=1;align=center;verticalAlign=middle;resizable=0;points=[];autosize=1;strokeColor=none;fillColor=none;" parent="1" vertex="1">
          <mxGeometry x="-35" y="325" width="370" height="30" as="geometry" />
        </mxCell>
        <mxCell id="zgLUoaWA3_SetJtCv8LB-8" value="&lt;span style=&quot;font-size: 16px;&quot;&gt;body&lt;/span&gt;" style="text;html=1;align=center;verticalAlign=middle;resizable=0;points=[];autosize=1;strokeColor=none;fillColor=none;" parent="1" vertex="1">
          <mxGeometry x="120" y="420" width="60" height="30" as="geometry" />
        </mxCell>
        <mxCell id="zgLUoaWA3_SetJtCv8LB-9" value="&lt;span style=&quot;font-size: 16px;&quot;&gt;HTTP headers&lt;/span&gt;" style="text;html=1;align=center;verticalAlign=middle;resizable=0;points=[];autosize=1;strokeColor=none;fillColor=none;" parent="1" vertex="1">
          <mxGeometry x="85" y="360" width="130" height="30" as="geometry" />
        </mxCell>
        <mxCell id="zgLUoaWA3_SetJtCv8LB-10" value="&lt;span style=&quot;font-size: 16px;&quot;&gt;HTTP headers&lt;/span&gt;" style="text;html=1;align=center;verticalAlign=middle;resizable=0;points=[];autosize=1;strokeColor=none;fillColor=none;" parent="1" vertex="1">
          <mxGeometry x="470" y="360" width="130" height="30" as="geometry" />
        </mxCell>
        <mxCell id="zgLUoaWA3_SetJtCv8LB-11" value="&lt;span style=&quot;font-size: 16px;&quot;&gt;empty line&lt;/span&gt;" style="text;html=1;align=center;verticalAlign=middle;resizable=0;points=[];autosize=1;strokeColor=none;fillColor=none;" parent="1" vertex="1">
          <mxGeometry x="100" y="390" width="100" height="30" as="geometry" />
        </mxCell>
        <mxCell id="zgLUoaWA3_SetJtCv8LB-12" value="status code&lt;br&gt;reason phrase" style="whiteSpace=wrap;html=1;fontSize=16;" parent="1" vertex="1">
          <mxGeometry x="890" y="320" width="120" height="60" as="geometry" />
        </mxCell>
        <mxCell id="zgLUoaWA3_SetJtCv8LB-13" value="&lt;ul style=&quot;box-sizing: border-box; padding: 0px; border: 0px; margin-top: 0px; margin-right: 0px; margin-left: 1rem; font-variant-numeric: inherit; font-variant-east-asian: inherit; font-stretch: inherit; font-family: &amp;quot;IBM Plex Sans&amp;quot;, &amp;quot;Helvetica Neue&amp;quot;, Arial, sans-serif; vertical-align: baseline; list-style: none; color: rgb(22, 22, 22); text-align: start; background-color: rgb(255, 255, 255); margin-bottom: 1.5rem !important; line-height: 1.5rem !important; letter-spacing: 0px !important;&quot; class=&quot;ul bx--list--unordered&quot;&gt;&lt;li style=&quot;box-sizing: inherit; padding: 0px; border: 0px; margin: 0.25rem 0px 0px; font-style: inherit; font-variant: inherit; font-weight: inherit; font-stretch: inherit; line-height: inherit; font-family: inherit; vertical-align: baseline; position: relative;&quot; class=&quot;li bx--list__item&quot;&gt;The range 100-199 is classed as Informational.&lt;/li&gt;&lt;li style=&quot;box-sizing: inherit; padding: 0px; border: 0px; margin: 0.25rem 0px 0px; font-style: inherit; font-variant: inherit; font-weight: inherit; font-stretch: inherit; line-height: inherit; font-family: inherit; vertical-align: baseline; position: relative;&quot; class=&quot;li bx--list__item&quot;&gt;200-299 is Successful.&lt;/li&gt;&lt;li style=&quot;box-sizing: inherit; padding: 0px; border: 0px; margin: 0.25rem 0px 0px; font-style: inherit; font-variant: inherit; font-weight: inherit; font-stretch: inherit; line-height: inherit; font-family: inherit; vertical-align: baseline; position: relative;&quot; class=&quot;li bx--list__item&quot;&gt;300-399 is Redirection.&lt;/li&gt;&lt;li style=&quot;box-sizing: inherit; padding: 0px; border: 0px; margin: 0.25rem 0px 0px; font-style: inherit; font-variant: inherit; font-weight: inherit; font-stretch: inherit; line-height: inherit; font-family: inherit; vertical-align: baseline; position: relative;&quot; class=&quot;li bx--list__item&quot;&gt;400-499 is Client error.&lt;/li&gt;&lt;li style=&quot;box-sizing: inherit; padding: 0px; border: 0px; margin: 0.25rem 0px 0px; font-style: inherit; font-variant: inherit; font-weight: inherit; font-stretch: inherit; line-height: inherit; font-family: inherit; vertical-align: baseline; position: relative;&quot; class=&quot;li bx--list__item&quot;&gt;500-599 is Server error.&lt;/li&gt;&lt;/ul&gt;" style="text;html=1;align=center;verticalAlign=middle;resizable=0;points=[];autosize=1;strokeColor=none;fillColor=none;fontSize=16;" parent="1" vertex="1">
          <mxGeometry x="880" y="430" width="370" height="180" as="geometry" />
        </mxCell>
        <mxCell id="zgLUoaWA3_SetJtCv8LB-19" value="头部字段&lt;br&gt;通用头部&lt;br&gt;请求头部&lt;br&gt;响应头部" style="whiteSpace=wrap;html=1;fontSize=16;" parent="1" vertex="1">
          <mxGeometry x="250" y="620" width="120" height="100" as="geometry" />
        </mxCell>
        <mxCell id="zgLUoaWA3_SetJtCv8LB-20" value="请求方法" style="whiteSpace=wrap;html=1;fontSize=16;" parent="1" vertex="1">
          <mxGeometry x="250" y="550" width="120" height="60" as="geometry" />
        </mxCell>
        <mxCell id="zgLUoaWA3_SetJtCv8LB-21" value="响应状态" style="whiteSpace=wrap;html=1;fontSize=16;" parent="1" vertex="1">
          <mxGeometry x="250" y="730" width="120" height="60" as="geometry" />
        </mxCell>
        <mxCell id="zgLUoaWA3_SetJtCv8LB-22" value="通信内容对通信过程的行为控制？&lt;br&gt;简单传送一个请求或者传输文件" style="whiteSpace=wrap;html=1;fontSize=16;" parent="1" vertex="1">
          <mxGeometry x="10" y="890" width="160" height="100" as="geometry" />
        </mxCell>
      </root>
    </mxGraphModel>
  </diagram>
</mxfile>
